<?xml version="1.0" encoding="utf-8"?>
<!-- Generator: Adobe Illustrator 19.0.0, SVG Export Plug-In . SVG Version: 6.00 Build 0)  -->
<svg version="1.1" xmlns="http://www.w3.org/2000/svg" xmlns:xlink="http://www.w3.org/1999/xlink" x="0px" y="0px"
	 viewBox="0 0 595.3 841.9" style="enable-background:new 0 0 595.3 841.9;" xml:space="preserve">
<style type="text/css">
	.st0{fill:#00A99D;}
	.st1{fill:#5C5C5C;}
	.st2{fill:#FFFFFF;}
</style>
<g id="Layer_1">
	<polygon id="XMLID_4_" class="st0" points="292.9,352.6 249.2,389.2 218,363 218,553.7 148.5,553.7 148.5,293.7 224,293.7 	"/>
	<polygon id="XMLID_5_" class="st0" points="446.4,293.7 371.4,293.7 253.5,393.9 297,430.8 376.4,363.7 376.4,553.7 446.4,553.7 	
		"/>
	<circle id="XMLID_1_" class="st0" cx="183.5" cy="245.4" r="35"/>
	<circle id="XMLID_6_" class="st0" cx="411.4" cy="245.4" r="35"/>
	<polygon id="XMLID_7_" class="st1" points="224.8,377.6 293.9,435 293.9,553.7 224.8,553.7 	"/>
	<polygon id="XMLID_8_" class="st1" points="369.8,378.6 300.6,435.7 300.6,553.7 369.8,553.7 	"/>
	<g id="XMLID_86_">
		<path id="XMLID_87_" class="st1" d="M176.6,597.6h-5.5v-19.2l-9.1,15.3l-8.7-15.4v19.3h-5.5v-28.8h6.3l8,14.3l8.3-14.3h6.1V597.6z
			"/>
		<path id="XMLID_89_" class="st1" d="M211,597.6h-6.1l-2.7-5.8h-14l-2.7,5.8h-6.1l13.6-28.8h4.4L211,597.6z M200,587.3l-4.8-10.4
			l-4.9,10.4H200z"/>
		<path id="XMLID_92_" class="st1" d="M233.1,590.1c0,1.1-0.2,2.1-0.7,3.1c-0.5,1-1.1,1.8-2,2.6c-0.8,0.7-1.8,1.3-3,1.8
			s-2.4,0.7-3.8,0.7c-1.2,0-2.4-0.1-3.4-0.2c-1-0.1-1.9-0.4-2.8-0.7s-1.7-0.7-2.5-1.2c-0.8-0.5-1.6-1.1-2.5-1.8l4-4
			c1.2,1,2.3,1.6,3.4,2c1.1,0.4,2.3,0.6,3.6,0.6c0.5,0,1-0.1,1.5-0.2s0.9-0.4,1.2-0.6c0.3-0.3,0.6-0.6,0.8-0.9s0.3-0.8,0.3-1.2
			c0-0.5-0.1-0.9-0.3-1.2c-0.2-0.4-0.5-0.7-0.9-1c-0.4-0.3-1-0.7-1.8-1c-0.8-0.3-1.8-0.7-2.9-1.2c-1.1-0.4-2.1-0.8-3-1.3
			s-1.8-1.1-2.6-1.8c-0.7-0.7-1.3-1.5-1.8-2.4c-0.4-0.9-0.7-2-0.7-3.3c0-1.2,0.2-2.3,0.7-3.4c0.5-1,1.2-1.9,2-2.6
			c0.9-0.7,1.8-1.3,3-1.7c1.1-0.4,2.4-0.6,3.7-0.6c2.2,0,4.1,0.3,5.6,0.9c1.5,0.6,2.9,1.4,4,2.5l-3.9,3.9c-0.7-0.7-1.5-1.2-2.4-1.6
			c-0.9-0.4-1.9-0.6-3.1-0.6c-0.6,0-1.1,0.1-1.5,0.3c-0.5,0.2-0.9,0.4-1.2,0.7c-0.3,0.3-0.6,0.6-0.8,1c-0.2,0.4-0.3,0.8-0.3,1.2
			c0,0.5,0.1,0.9,0.3,1.2s0.5,0.7,1,1.1c0.5,0.3,1.1,0.7,1.8,1s1.7,0.7,2.8,1.1c1.4,0.5,2.7,1.1,3.7,1.7c1,0.6,1.9,1.3,2.5,2
			c0.6,0.7,1.1,1.5,1.4,2.4C232.9,588,233.1,589,233.1,590.1z"/>
		<path id="XMLID_94_" class="st1" d="M261.4,597.6h-7.3l-11.5-12.7v12.7H237v-28.8h5.6v12.8l11.8-12.8h6.6L248,583L261.4,597.6z"/>
		<path id="XMLID_96_" class="st1" d="M292.9,597.6h-6.1l-2.7-5.8h-14l-2.7,5.8h-6.1l13.6-28.8h4.4L292.9,597.6z M282,587.3
			l-4.8-10.4l-4.9,10.4H282z"/>
		<path id="XMLID_99_" class="st1" d="M319.7,597.6h-5.5l-13-20.2v20.2h-5.5v-28.8h6.3l12.2,18.8v-18.8h5.5V597.6z"/>
		<path id="XMLID_101_" class="st1" d="M344.3,590.1c0,1.1-0.2,2.1-0.7,3.1c-0.5,1-1.1,1.8-2,2.6s-1.8,1.3-3,1.8
			c-1.2,0.4-2.4,0.7-3.8,0.7c-1.2,0-2.4-0.1-3.4-0.2c-1-0.1-1.9-0.4-2.8-0.7c-0.9-0.3-1.7-0.7-2.5-1.2c-0.8-0.5-1.6-1.1-2.5-1.8l4-4
			c1.2,1,2.3,1.6,3.4,2s2.3,0.6,3.6,0.6c0.5,0,1-0.1,1.5-0.2s0.9-0.4,1.2-0.6c0.3-0.3,0.6-0.6,0.8-0.9c0.2-0.4,0.3-0.8,0.3-1.2
			c0-0.5-0.1-0.9-0.3-1.2c-0.2-0.4-0.5-0.7-0.9-1c-0.4-0.3-1-0.7-1.8-1c-0.8-0.3-1.8-0.7-2.9-1.2c-1.1-0.4-2.1-0.8-3-1.3
			c-1-0.5-1.8-1.1-2.6-1.8s-1.3-1.5-1.8-2.4s-0.7-2-0.7-3.3c0-1.2,0.2-2.3,0.7-3.4c0.5-1,1.2-1.9,2-2.6c0.9-0.7,1.8-1.3,3-1.7
			c1.1-0.4,2.4-0.6,3.7-0.6c2.2,0,4.1,0.3,5.6,0.9s2.9,1.4,4,2.5l-3.9,3.9c-0.7-0.7-1.5-1.2-2.4-1.6c-0.9-0.4-1.9-0.6-3.1-0.6
			c-0.6,0-1.1,0.1-1.5,0.3c-0.5,0.2-0.9,0.4-1.2,0.7s-0.6,0.6-0.8,1c-0.2,0.4-0.3,0.8-0.3,1.2c0,0.5,0.1,0.9,0.3,1.2
			c0.2,0.4,0.5,0.7,1,1.1c0.5,0.3,1.1,0.7,1.8,1s1.7,0.7,2.8,1.1c1.4,0.5,2.7,1.1,3.7,1.7c1,0.6,1.9,1.3,2.5,2
			c0.6,0.7,1.1,1.5,1.4,2.4C344.1,588,344.3,589,344.3,590.1z"/>
		<path id="XMLID_103_" class="st1" d="M370.7,597.6h-5.6v-12.7h-11.3v12.7h-5.6v-28.7h5.6v11.4h11.3v-11.4h5.6V597.6z"/>
		<path id="XMLID_105_" class="st1" d="M405.5,583.3c0,2.1-0.4,4-1.2,5.8c-0.8,1.8-1.9,3.4-3.3,4.7c-1.4,1.3-3,2.4-4.8,3.2
			c-1.8,0.8-3.8,1.2-5.9,1.2c-2.1,0-4.1-0.4-5.9-1.2c-1.9-0.8-3.5-1.8-4.9-3.2c-1.4-1.3-2.5-2.9-3.3-4.7c-0.8-1.8-1.2-3.8-1.2-5.8
			c0-2.1,0.4-4,1.2-5.9c0.8-1.8,1.9-3.4,3.3-4.7c1.4-1.3,3-2.4,4.9-3.2c1.9-0.8,3.8-1.2,5.9-1.2c2.1,0,4,0.4,5.9,1.2
			c1.8,0.8,3.5,1.8,4.8,3.2c1.4,1.4,2.5,2.9,3.3,4.7C405.1,579.2,405.5,581.2,405.5,583.3z M400,583.3c0-1.3-0.3-2.6-0.8-3.7
			c-0.5-1.2-1.2-2.2-2.1-3.1c-0.9-0.9-1.9-1.6-3.1-2.1c-1.2-0.5-2.4-0.8-3.7-0.8c-1.3,0-2.6,0.3-3.8,0.8c-1.2,0.5-2.2,1.2-3.1,2.1
			c-0.9,0.9-1.6,1.9-2.1,3.1c-0.5,1.2-0.8,2.4-0.8,3.7c0,1.3,0.3,2.5,0.8,3.7c0.5,1.2,1.2,2.2,2.1,3.1c0.9,0.9,1.9,1.6,3.1,2.1
			c1.2,0.5,2.4,0.8,3.8,0.8c1.3,0,2.6-0.3,3.7-0.8c1.2-0.5,2.2-1.2,3.1-2.1c0.9-0.9,1.6-1.9,2.1-3.1
			C399.7,585.8,400,584.6,400,583.3z"/>
		<path id="XMLID_108_" class="st1" d="M446.6,568.9l-9.3,28.8h-4.9l-5.3-17.8l-5.3,17.8h-4.9l-9.3-28.8h5.9l6.1,18.6l5.3-18.6h4.6
			l5.3,18.6l6.1-18.6H446.6z"/>
	</g>
	<g id="XMLID_62_">
		<path id="XMLID_63_" class="st1" d="M176.6,597.6h-5.5v-19.2l-9.1,15.3l-8.7-15.4v19.3h-5.5v-28.8h6.3l8,14.3l8.3-14.3h6.1V597.6z
			"/>
		<path id="XMLID_65_" class="st1" d="M211,597.6h-6.1l-2.7-5.8h-14l-2.7,5.8h-6.1l13.6-28.8h4.4L211,597.6z M200,587.3l-4.8-10.4
			l-4.9,10.4H200z"/>
		<path id="XMLID_68_" class="st1" d="M233.1,590.1c0,1.1-0.2,2.1-0.7,3.1c-0.5,1-1.1,1.8-2,2.6c-0.8,0.7-1.8,1.3-3,1.8
			s-2.4,0.7-3.8,0.7c-1.2,0-2.4-0.1-3.4-0.2c-1-0.1-1.9-0.4-2.8-0.7s-1.7-0.7-2.5-1.2c-0.8-0.5-1.6-1.1-2.5-1.8l4-4
			c1.2,1,2.3,1.6,3.4,2c1.1,0.4,2.3,0.6,3.6,0.6c0.5,0,1-0.1,1.5-0.2s0.9-0.4,1.2-0.6c0.3-0.3,0.6-0.6,0.8-0.9s0.3-0.8,0.3-1.2
			c0-0.5-0.1-0.9-0.3-1.2c-0.2-0.4-0.5-0.7-0.9-1c-0.4-0.3-1-0.7-1.8-1c-0.8-0.3-1.8-0.7-2.9-1.2c-1.1-0.4-2.1-0.8-3-1.3
			s-1.8-1.1-2.6-1.8c-0.7-0.7-1.3-1.5-1.8-2.4c-0.4-0.9-0.7-2-0.7-3.3c0-1.2,0.2-2.3,0.7-3.4c0.5-1,1.2-1.9,2-2.6
			c0.9-0.7,1.8-1.3,3-1.7c1.1-0.4,2.4-0.6,3.7-0.6c2.2,0,4.1,0.3,5.6,0.9c1.5,0.6,2.9,1.4,4,2.5l-3.9,3.9c-0.7-0.7-1.5-1.2-2.4-1.6
			c-0.9-0.4-1.9-0.6-3.1-0.6c-0.6,0-1.1,0.1-1.5,0.3c-0.5,0.2-0.9,0.4-1.2,0.7c-0.3,0.3-0.6,0.6-0.8,1c-0.2,0.4-0.3,0.8-0.3,1.2
			c0,0.5,0.1,0.9,0.3,1.2s0.5,0.7,1,1.1c0.5,0.3,1.1,0.7,1.8,1s1.7,0.7,2.8,1.1c1.4,0.5,2.7,1.1,3.7,1.7c1,0.6,1.9,1.3,2.5,2
			c0.6,0.7,1.1,1.5,1.4,2.4C232.9,588,233.1,589,233.1,590.1z"/>
		<path id="XMLID_70_" class="st1" d="M261.4,597.6h-7.3l-11.5-12.7v12.7H237v-28.8h5.6v12.8l11.8-12.8h6.6L248,583L261.4,597.6z"/>
		<path id="XMLID_72_" class="st1" d="M292.9,597.6h-6.1l-2.7-5.8h-14l-2.7,5.8h-6.1l13.6-28.8h4.4L292.9,597.6z M282,587.3
			l-4.8-10.4l-4.9,10.4H282z"/>
		<path id="XMLID_75_" class="st1" d="M319.7,597.6h-5.5l-13-20.2v20.2h-5.5v-28.8h6.3l12.2,18.8v-18.8h5.5V597.6z"/>
		<path id="XMLID_77_" class="st1" d="M344.3,590.1c0,1.1-0.2,2.1-0.7,3.1c-0.5,1-1.1,1.8-2,2.6s-1.8,1.3-3,1.8
			c-1.2,0.4-2.4,0.7-3.8,0.7c-1.2,0-2.4-0.1-3.4-0.2c-1-0.1-1.9-0.4-2.8-0.7c-0.9-0.3-1.7-0.7-2.5-1.2c-0.8-0.5-1.6-1.1-2.5-1.8l4-4
			c1.2,1,2.3,1.6,3.4,2s2.3,0.6,3.6,0.6c0.5,0,1-0.1,1.5-0.2s0.9-0.4,1.2-0.6c0.3-0.3,0.6-0.6,0.8-0.9c0.2-0.4,0.3-0.8,0.3-1.2
			c0-0.5-0.1-0.9-0.3-1.2c-0.2-0.4-0.5-0.7-0.9-1c-0.4-0.3-1-0.7-1.8-1c-0.8-0.3-1.8-0.7-2.9-1.2c-1.1-0.4-2.1-0.8-3-1.3
			c-1-0.5-1.8-1.1-2.6-1.8s-1.3-1.5-1.8-2.4s-0.7-2-0.7-3.3c0-1.2,0.2-2.3,0.7-3.4c0.5-1,1.2-1.9,2-2.6c0.9-0.7,1.8-1.3,3-1.7
			c1.1-0.4,2.4-0.6,3.7-0.6c2.2,0,4.1,0.3,5.6,0.9s2.9,1.4,4,2.5l-3.9,3.9c-0.7-0.7-1.5-1.2-2.4-1.6c-0.9-0.4-1.9-0.6-3.1-0.6
			c-0.6,0-1.1,0.1-1.5,0.3c-0.5,0.2-0.9,0.4-1.2,0.7s-0.6,0.6-0.8,1c-0.2,0.4-0.3,0.8-0.3,1.2c0,0.5,0.1,0.9,0.3,1.2
			c0.2,0.4,0.5,0.7,1,1.1c0.5,0.3,1.1,0.7,1.8,1s1.7,0.7,2.8,1.1c1.4,0.5,2.7,1.1,3.7,1.7c1,0.6,1.9,1.3,2.5,2
			c0.6,0.7,1.1,1.5,1.4,2.4C344.1,588,344.3,589,344.3,590.1z"/>
		<path id="XMLID_79_" class="st1" d="M370.7,597.6h-5.6v-12.7h-11.3v12.7h-5.6v-28.7h5.6v11.4h11.3v-11.4h5.6V597.6z"/>
		<path id="XMLID_81_" class="st1" d="M405.5,583.3c0,2.1-0.4,4-1.2,5.8c-0.8,1.8-1.9,3.4-3.3,4.7c-1.4,1.3-3,2.4-4.8,3.2
			c-1.8,0.8-3.8,1.2-5.9,1.2c-2.1,0-4.1-0.4-5.9-1.2c-1.9-0.8-3.5-1.8-4.9-3.2c-1.4-1.3-2.5-2.9-3.3-4.7c-0.8-1.8-1.2-3.8-1.2-5.8
			c0-2.1,0.4-4,1.2-5.9c0.8-1.8,1.9-3.4,3.3-4.7c1.4-1.3,3-2.4,4.9-3.2c1.9-0.8,3.8-1.2,5.9-1.2c2.1,0,4,0.4,5.9,1.2
			c1.8,0.8,3.5,1.8,4.8,3.2c1.4,1.4,2.5,2.9,3.3,4.7C405.1,579.2,405.5,581.2,405.5,583.3z M400,583.3c0-1.3-0.3-2.6-0.8-3.7
			c-0.5-1.2-1.2-2.2-2.1-3.1c-0.9-0.9-1.9-1.6-3.1-2.1c-1.2-0.5-2.4-0.8-3.7-0.8c-1.3,0-2.6,0.3-3.8,0.8c-1.2,0.5-2.2,1.2-3.1,2.1
			c-0.9,0.9-1.6,1.9-2.1,3.1c-0.5,1.2-0.8,2.4-0.8,3.7c0,1.3,0.3,2.5,0.8,3.7c0.5,1.2,1.2,2.2,2.1,3.1c0.9,0.9,1.9,1.6,3.1,2.1
			c1.2,0.5,2.4,0.8,3.8,0.8c1.3,0,2.6-0.3,3.7-0.8c1.2-0.5,2.2-1.2,3.1-2.1c0.9-0.9,1.6-1.9,2.1-3.1
			C399.7,585.8,400,584.6,400,583.3z"/>
		<path id="XMLID_84_" class="st1" d="M446.6,568.9l-9.3,28.8h-4.9l-5.3-17.8l-5.3,17.8h-4.9l-9.3-28.8h5.9l6.1,18.6l5.3-18.6h4.6
			l5.3,18.6l6.1-18.6H446.6z"/>
	</g>
	<g id="XMLID_9_">
		<path id="XMLID_39_" class="st1" d="M176.6,597.6h-5.5v-19.2l-9.1,15.3l-8.7-15.4v19.3h-5.5v-28.8h6.3l8,14.3l8.3-14.3h6.1V597.6z
			"/>
		<path id="XMLID_41_" class="st1" d="M211,597.6h-6.1l-2.7-5.8h-14l-2.7,5.8h-6.1l13.6-28.8h4.4L211,597.6z M200,587.3l-4.8-10.4
			l-4.9,10.4H200z"/>
		<path id="XMLID_44_" class="st1" d="M233.1,590.1c0,1.1-0.2,2.1-0.7,3.1c-0.5,1-1.1,1.8-2,2.6c-0.8,0.7-1.8,1.3-3,1.8
			s-2.4,0.7-3.8,0.7c-1.2,0-2.4-0.1-3.4-0.2c-1-0.1-1.9-0.4-2.8-0.7s-1.7-0.7-2.5-1.2c-0.8-0.5-1.6-1.1-2.5-1.8l4-4
			c1.2,1,2.3,1.6,3.4,2c1.1,0.4,2.3,0.6,3.6,0.6c0.5,0,1-0.1,1.5-0.2s0.9-0.4,1.2-0.6c0.3-0.3,0.6-0.6,0.8-0.9s0.3-0.8,0.3-1.2
			c0-0.5-0.1-0.9-0.3-1.2c-0.2-0.4-0.5-0.7-0.9-1c-0.4-0.3-1-0.7-1.8-1c-0.8-0.3-1.8-0.7-2.9-1.2c-1.1-0.4-2.1-0.8-3-1.3
			s-1.8-1.1-2.6-1.8c-0.7-0.7-1.3-1.5-1.8-2.4c-0.4-0.9-0.7-2-0.7-3.3c0-1.2,0.2-2.3,0.7-3.4c0.5-1,1.2-1.9,2-2.6
			c0.9-0.7,1.8-1.3,3-1.7c1.1-0.4,2.4-0.6,3.7-0.6c2.2,0,4.1,0.3,5.6,0.9c1.5,0.6,2.9,1.4,4,2.5l-3.9,3.9c-0.7-0.7-1.5-1.2-2.4-1.6
			c-0.9-0.4-1.9-0.6-3.1-0.6c-0.6,0-1.1,0.1-1.5,0.3c-0.5,0.2-0.9,0.4-1.2,0.7c-0.3,0.3-0.6,0.6-0.8,1c-0.2,0.4-0.3,0.8-0.3,1.2
			c0,0.5,0.1,0.9,0.3,1.2s0.5,0.7,1,1.1c0.5,0.3,1.1,0.7,1.8,1s1.7,0.7,2.8,1.1c1.4,0.5,2.7,1.1,3.7,1.7c1,0.6,1.9,1.3,2.5,2
			c0.6,0.7,1.1,1.5,1.4,2.4C232.9,588,233.1,589,233.1,590.1z"/>
		<path id="XMLID_46_" class="st1" d="M261.4,597.6h-7.3l-11.5-12.7v12.7H237v-28.8h5.6v12.8l11.8-12.8h6.6L248,583L261.4,597.6z"/>
		<path id="XMLID_48_" class="st1" d="M292.9,597.6h-6.1l-2.7-5.8h-14l-2.7,5.8h-6.1l13.6-28.8h4.4L292.9,597.6z M282,587.3
			l-4.8-10.4l-4.9,10.4H282z"/>
		<path id="XMLID_51_" class="st1" d="M319.7,597.6h-5.5l-13-20.2v20.2h-5.5v-28.8h6.3l12.2,18.8v-18.8h5.5V597.6z"/>
		<path id="XMLID_53_" class="st1" d="M344.3,590.1c0,1.1-0.2,2.1-0.7,3.1c-0.5,1-1.1,1.8-2,2.6s-1.8,1.3-3,1.8
			c-1.2,0.4-2.4,0.7-3.8,0.7c-1.2,0-2.4-0.1-3.4-0.2c-1-0.1-1.9-0.4-2.8-0.7c-0.9-0.3-1.7-0.7-2.5-1.2c-0.8-0.5-1.6-1.1-2.5-1.8l4-4
			c1.2,1,2.3,1.6,3.4,2s2.3,0.6,3.6,0.6c0.5,0,1-0.1,1.5-0.2s0.9-0.4,1.2-0.6c0.3-0.3,0.6-0.6,0.8-0.9c0.2-0.4,0.3-0.8,0.3-1.2
			c0-0.5-0.1-0.9-0.3-1.2c-0.2-0.4-0.5-0.7-0.9-1c-0.4-0.3-1-0.7-1.8-1c-0.8-0.3-1.8-0.7-2.9-1.2c-1.1-0.4-2.1-0.8-3-1.3
			c-1-0.5-1.8-1.1-2.6-1.8s-1.3-1.5-1.8-2.4s-0.7-2-0.7-3.3c0-1.2,0.2-2.3,0.7-3.4c0.5-1,1.2-1.9,2-2.6c0.9-0.7,1.8-1.3,3-1.7
			c1.1-0.4,2.4-0.6,3.7-0.6c2.2,0,4.1,0.3,5.6,0.9s2.9,1.4,4,2.5l-3.9,3.9c-0.7-0.7-1.5-1.2-2.4-1.6c-0.9-0.4-1.9-0.6-3.1-0.6
			c-0.6,0-1.1,0.1-1.5,0.3c-0.5,0.2-0.9,0.4-1.2,0.7s-0.6,0.6-0.8,1c-0.2,0.4-0.3,0.8-0.3,1.2c0,0.5,0.1,0.9,0.3,1.2
			c0.2,0.4,0.5,0.7,1,1.1c0.5,0.3,1.1,0.7,1.8,1s1.7,0.7,2.8,1.1c1.4,0.5,2.7,1.1,3.7,1.7c1,0.6,1.9,1.3,2.5,2
			c0.6,0.7,1.1,1.5,1.4,2.4C344.1,588,344.3,589,344.3,590.1z"/>
		<path id="XMLID_55_" class="st1" d="M370.7,597.6h-5.6v-12.7h-11.3v12.7h-5.6v-28.7h5.6v11.4h11.3v-11.4h5.6V597.6z"/>
		<path id="XMLID_57_" class="st1" d="M405.5,583.3c0,2.1-0.4,4-1.2,5.8c-0.8,1.8-1.9,3.4-3.3,4.7c-1.4,1.3-3,2.4-4.8,3.2
			c-1.8,0.8-3.8,1.2-5.9,1.2c-2.1,0-4.1-0.4-5.9-1.2c-1.9-0.8-3.5-1.8-4.9-3.2c-1.4-1.3-2.5-2.9-3.3-4.7c-0.8-1.8-1.2-3.8-1.2-5.8
			c0-2.1,0.4-4,1.2-5.9c0.8-1.8,1.9-3.4,3.3-4.7c1.4-1.3,3-2.4,4.9-3.2c1.9-0.8,3.8-1.2,5.9-1.2c2.1,0,4,0.4,5.9,1.2
			c1.8,0.8,3.5,1.8,4.8,3.2c1.4,1.4,2.5,2.9,3.3,4.7C405.1,579.2,405.5,581.2,405.5,583.3z M400,583.3c0-1.3-0.3-2.6-0.8-3.7
			c-0.5-1.2-1.2-2.2-2.1-3.1c-0.9-0.9-1.9-1.6-3.1-2.1c-1.2-0.5-2.4-0.8-3.7-0.8c-1.3,0-2.6,0.3-3.8,0.8c-1.2,0.5-2.2,1.2-3.1,2.1
			c-0.9,0.9-1.6,1.9-2.1,3.1c-0.5,1.2-0.8,2.4-0.8,3.7c0,1.3,0.3,2.5,0.8,3.7c0.5,1.2,1.2,2.2,2.1,3.1c0.9,0.9,1.9,1.6,3.1,2.1
			c1.2,0.5,2.4,0.8,3.8,0.8c1.3,0,2.6-0.3,3.7-0.8c1.2-0.5,2.2-1.2,3.1-2.1c0.9-0.9,1.6-1.9,2.1-3.1
			C399.7,585.8,400,584.6,400,583.3z"/>
		<path id="XMLID_60_" class="st1" d="M446.6,568.9l-9.3,28.8h-4.9l-5.3-17.8l-5.3,17.8h-4.9l-9.3-28.8h5.9l6.1,18.6l5.3-18.6h4.6
			l5.3,18.6l6.1-18.6H446.6z"/>
	</g>
</g>
<g id="Layer_2">
	<g id="XMLID_25_">
		<polygon id="XMLID_2_" class="st2" points="233.6,391.6 245.4,401 245.4,414.6 233.6,406 		"/>
		<polygon id="XMLID_12_" class="st2" points="269,419.9 276.9,426.2 276.9,437.5 269,431.8 		"/>
		<polygon id="XMLID_13_" class="st2" points="252.3,425 252.3,438 262,444 262,431.7 		"/>
		<polygon id="XMLID_14_" class="st2" points="233.7,452.8 245.3,458.4 245.3,472 233.7,467 		"/>
		<polygon id="XMLID_15_" class="st2" points="269.1,470.2 277.1,474.2 277.1,485.5 269.1,482.3 		"/>
		<polygon id="XMLID_16_" class="st2" points="269.1,503.8 277.1,506.1 277.1,517.3 269.1,515.6 		"/>
		<polygon id="XMLID_17_" class="st2" points="252.1,517.3 261.9,519.2 261.9,531.7 252.1,530.7 		"/>
		<polygon id="XMLID_21_" class="st2" points="245.3,535.4 233.5,534.6 233.5,548.8 245.3,548.8 		"/>
		<polygon id="XMLID_23_" class="st2" points="252.1,536.1 261.9,536.8 261.9,549.1 252.1,549.1 		"/>
		<polygon id="XMLID_24_" class="st2" points="281.8,522.8 289.7,524.1 289.7,534.6 281.8,533.8 		"/>
	</g>
	<g id="XMLID_26_">
		<polygon id="XMLID_36_" class="st2" points="362.8,391.4 351,400.8 351,414.4 362.8,405.8 		"/>
		<polygon id="XMLID_38_" class="st2" points="362.8,411.5 351,420.9 351,434.5 362.8,425.9 		"/>
		<polygon id="XMLID_35_" class="st2" points="327.4,419.7 319.5,426 319.5,437.3 327.4,431.6 		"/>
		<polygon id="XMLID_34_" class="st2" points="344.1,424.7 344.1,437.8 334.4,443.8 334.4,431.5 		"/>
		<polygon id="XMLID_33_" class="st2" points="362.7,452.6 351.1,458.2 351.1,471.8 362.7,466.8 		"/>
		<polygon id="XMLID_32_" class="st2" points="327.3,470 319.3,473.9 319.3,485.3 327.3,482.1 		"/>
		<polygon id="XMLID_31_" class="st2" points="327.3,503.6 319.3,505.9 319.3,517.1 327.3,515.4 		"/>
		<polygon id="XMLID_30_" class="st2" points="344.3,517.1 334.5,519 334.5,531.5 344.3,530.4 		"/>
		<polygon id="XMLID_29_" class="st2" points="351,535.2 362.9,534.4 362.9,548.6 351,548.6 		"/>
		<polygon id="XMLID_28_" class="st2" points="344.3,535.9 334.5,536.6 334.5,548.9 344.3,548.9 		"/>
		<polygon id="XMLID_27_" class="st2" points="314.6,522.6 306.7,523.9 306.7,534.4 314.6,533.6 		"/>
		<polygon id="XMLID_37_" class="st2" points="314.3,475.8 306.3,479.8 306.3,491.1 314.3,487.9 		"/>
	</g>
</g>
</svg>
