<svg height="468pt" viewBox="-1 0 468 468.56004" width="468pt" xmlns="http://www.w3.org/2000/svg"><path d="m256.28125 208v88l-16 8-16-8v-88zm0 0" fill="#898890"/><path d="m280.28125 148.398438v43.601562c-.027344 8.824219-7.175781 15.972656-16 16h-48c-8.828125-.027344-15.976562-7.175781-16-16v-43.601562c-.011719-1.445313.40625-2.867188 1.199219-4.078126.621093-1.125 1.53125-2.066406 2.640625-2.71875 10.867187-7.210937 23.230468-11.859374 36.160156-13.601562 12.925781 1.742188 25.289062 6.390625 36.160156 13.601562 1.105469.652344 2.015625 1.59375 2.636719 2.71875.792969 1.210938 1.210937 2.632813 1.203125 4.078126zm0 0" fill="#57565c"/><path d="m467.238281 348.320312-43.757812 120.238282-45.121094-16.398438 5.441406-15.039062 32.878907-90.242188 5.441406-15.039062zm0 0" fill="#787680"/><path d="m64.28125 104v24h-64v-128h64zm0 0" fill="#1e81ce"/><path d="m228.839844 363.679688c.121094-1.347657.445312-2.667969.960937-3.917969 2.929688-8.066407 9.945313-13.957031 18.398438-15.441407l90.082031-15.921874 18.640625-3.277344 59.757813 21.757812-32.878907 90.242188-14.960937-5.441406-48.558594 16.320312-22.5625-8.160156-141.757812-51.601563c-11.082032-3.769531-18.019532-14.773437-16.640626-26.398437 1.03125-7.160156 5.234376-13.472656 11.445313-17.183594s13.761719-4.421875 20.554687-1.9375zm0 0" fill="#ffc477"/><path d="m319.398438 79.121094-65.039063-65.042969c-9.007813-9.027344-21.246094-14.09375-34-14.078125h-84.078125l-56 24h-16v80h16c0 17.679688 24 32 48 32s48-14.320312 48-32h56c13.253906 0 24-10.746094 24-24l32 32c1.882812 1.890625 4.109375 3.410156 6.558594 4.480469 2.949218 1.398437 6.175781 2.109375 9.441406 2.078125 7.734375.039062 14.949219-3.882813 19.117188-10.398438 5.5625-9.4375 3.90625-21.457031-4-29.039062zm0 0" fill="#ffdaaa"/><path d="m248.28125 160c0 4.417969-3.582031 8-8 8s-8-3.582031-8-8 3.582031-8 8-8 8 3.582031 8 8zm0 0" fill="#c6c5ca"/><path d="m224.28125 208h32v16h-32zm0 0" fill="#787680"/><path d="m256.28125 160c0 8.835938-7.164062 16-16 16s-16-7.164062-16-16 7.164062-16 16-16 16 7.164062 16 16zm0 0" fill="#787680"/><path d="m240.28125 159.375c.019531 2.3125-.964844 4.523438-2.695312 6.054688-1.734376 1.535156-4.042969 2.246093-6.339844 1.945312-31.507813-4.558594-54.90625-31.539062-54.964844-63.375h16c.054688 23.835938 17.542969 44.042969 41.125 47.511719 3.921875.558593 6.847656 3.902343 6.875 7.863281zm0 0" fill="#898890"/><path d="m278.679688 143.863281c-2.714844-2.871093-2.90625-7.304687-.449219-10.398437 4.304687-5.492188 7.3125-11.882813 8.800781-18.695313l.105469-.433593c2.835937-13.433594-.171875-27.441407-8.269531-38.527344-8.097657-11.089844-20.527344-18.214844-34.1875-19.601563-10.136719-.953125-20.3125 1.371094-29.03125 6.632813l-8.335938-13.671875c21.988281-13.304688 49.808594-12.140625 70.609375 2.957031s30.53125 41.1875 24.695313 66.21875c-2.023438 9.164062-6.105469 17.75-11.9375 25.105469-1.457032 1.773437-3.609376 2.839843-5.90625 2.917969-2.296876.078124-4.515626-.832032-6.09375-2.503907zm0 0" fill="#898890"/><path d="m128.28125 135.425781c.023438-4.007812 3.007812-7.378906 6.984375-7.890625 17.382813-2.277344 32.742187-12.640625 33.015625-23.253906-.0625-4.492188 3.507812-8.1875 8-8.28125h56c8.523438-.007812 15.550781-6.6875 16-15.199219-.019531-4.515625-1.847656-8.832031-5.074219-11.988281-3.226562-3.160156-7.582031-4.890625-12.09375-4.8125h-78.832031c-4.417969 0-8-3.582031-8-8s3.582031-8 8-8h78.398438c17.035156.109375 31.355468 12.8125 33.496093 29.710938.761719 10.464843-3.667969 20.632812-11.847656 27.199218-6.136719 4.753906-13.71875 7.253906-21.480469 7.089844h-47.734375c-5.007812 16.800781-25.296875 28.679688-45.9375 31.40625-2.269531.257812-4.539062-.46875-6.238281-1.992188-1.699219-1.527343-2.667969-3.707031-2.65625-5.988281zm0 0" fill="#ffc477"/><path d="m252.375 400c-15.519531-.042969-28.792969-11.171875-31.542969-26.449219-.648437-3.691406-.621093-7.46875.078125-11.152343.257813-1.832032.722656-3.628907 1.378906-5.359376 3.921876-10.738281 13.261719-18.578124 24.519532-20.582031l108.71875-19.199219c1.382812-.253906 2.804687-.132812 4.121094.359376l20.496093 7.460937c1.996094.722656 3.625 2.210937 4.527344 4.132813.898437 1.925781.996094 4.128906.273437 6.125-1.503906 4.15625-6.09375 6.304687-10.25 4.800781l-18.488281-6.730469-106.207031 18.730469c-5.707031.933593-10.496094 4.808593-12.609375 10.191406-.285156.699219-.488281 1.425781-.613281 2.167969-.03125.269531-.078125.535156-.136719.800781-.359375 1.820313-.371094 3.691406-.039063 5.519531 1.617188 8.644532 9.867188 14.394532 18.535157 12.917969l82.183593-14.46875c4.347657-.765625 8.492188 2.132813 9.265626 6.476563.761718 4.351562-2.140626 8.496093-6.488282 9.265624l-82.21875 14.503907c-1.816406.320312-3.65625.480469-5.503906.488281zm0 0" fill="#ffb655"/></svg>