<?xml version="1.0" encoding="iso-8859-1"?>
<!-- Generator: Adobe Illustrator 19.0.0, SVG Export Plug-In . SVG Version: 6.00 Build 0)  -->
<svg version="1.1" id="Capa_1" xmlns="http://www.w3.org/2000/svg" xmlns:xlink="http://www.w3.org/1999/xlink" x="0px" y="0px"
	 viewBox="0 0 512.003 512.003" style="enable-background:new 0 0 512.003 512.003;" xml:space="preserve">
<path style="fill:#303C42;" d="M394.668,512c-2.313,0-4.604-0.75-6.5-2.208L256.001,408.125L123.835,509.792
	c-3.208,2.479-7.521,2.906-11.208,1.115c-3.646-1.802-5.958-5.51-5.958-9.573V42.667C106.668,19.135,125.814,0,149.335,0h213.333
	c23.521,0,42.667,19.135,42.667,42.667v458.667c0,4.063-2.313,7.771-5.958,9.573C397.876,511.635,396.272,512,394.668,512z"/>
<path style="fill:#E91E63;" d="M256.001,384c2.292,0,4.583,0.74,6.5,2.208l121.5,93.458v-437c0-11.76-9.563-21.333-21.333-21.333
	H149.335c-11.771,0-21.333,9.573-21.333,21.333v437l121.5-93.458C251.418,384.74,253.71,384,256.001,384z"/>
<path style="fill:#E91E63;enable-background:new    ;" d="M160.001,93.076c0-21.949,17.793-39.742,39.742-39.742
	h184.258V42.667c0-11.76-9.563-21.333-21.333-21.333H149.335c-11.771,0-21.333,9.573-21.333,21.333v437l32-24.615V93.076z"/>
<linearGradient id="SVGID_1_" gradientUnits="userSpaceOnUse" x1="-44.5559" y1="638.809" x2="-24.6092" y2="629.5067" gradientTransform="matrix(21.3333 0 0 -21.3333 996.3073 13791.6963)">
	<stop  offset="0" style="stop-color:#FFFFFF;stop-opacity:0.2"/>
	<stop  offset="1" style="stop-color:#FFFFFF;stop-opacity:0"/>
</linearGradient>
<path style="fill:url(#SVGID_1_);" d="M394.668,512c-2.313,0-4.604-0.75-6.5-2.208L256.001,408.125L123.835,509.792
	c-3.208,2.479-7.521,2.906-11.208,1.115c-3.646-1.802-5.958-5.51-5.958-9.573V42.667C106.668,19.135,125.814,0,149.335,0h213.333
	c23.521,0,42.667,19.135,42.667,42.667v458.667c0,4.063-2.313,7.771-5.958,9.573C397.876,511.635,396.272,512,394.668,512z"/>
<g>
</g>
<g>
</g>
<g>
</g>
<g>
</g>
<g>
</g>
<g>
</g>
<g>
</g>
<g>
</g>
<g>
</g>
<g>
</g>
<g>
</g>
<g>
</g>
<g>
</g>
<g>
</g>
<g>
</g>
</svg>
