<svg height="479pt" viewBox="-63 0 479 479.9805" width="479pt" xmlns="http://www.w3.org/2000/svg"><path d="m344.492188 176c0-92.785156-75.21875-168-168-168-92.785157 0-168 75.214844-168 168 0 104 168 296 168 296s168-192 168-296zm-304 0c0-75.109375 60.886718-136 136-136 75.109374 0 136 60.890625 136 136s-60.890626 136-136 136c-36.085938.042969-70.703126-14.273438-96.214844-39.785156-25.515625-25.515625-39.828125-60.132813-39.785156-96.214844zm0 0" fill="#78b9eb"/><path d="m208.492188 248h48v-120h-160v120h48v-72h64zm0 0" fill="#78b9eb"/><g fill="#1a6fb0"><path d="m176.492188 32c-79.53125 0-144 64.472656-144 144s64.46875 144 144 144c79.527343 0 144-64.472656 144-144-.09375-79.492188-64.511719-143.90625-144-144zm0 272c-70.695313 0-128-57.308594-128-128s57.304687-128 128-128c70.691406 0 128 57.308594 128 128-.085938 70.65625-57.34375 127.917969-128 128zm0 0"/><path d="m284.320312 120.976562-104-56.730468c-2.386718-1.300782-5.273437-1.300782-7.660156 0l-104 56.730468c-3.214844 1.75-4.828125 5.457032-3.925781 9 .90625 3.542969 4.097656 6.023438 7.757813 6.023438h16v112c0 4.417969 3.578124 8 8 8h160c4.417968 0 8-3.582031 8-8v-112h16c3.65625 0 6.847656-2.480469 7.753906-6.023438.902344-3.542968-.710938-7.25-3.925782-9zm-107.828124-40.59375 72.621093 39.617188h-145.246093zm24 159.617188h-48v-56h48zm48 0h-32v-64c0-4.417969-3.582032-8-8-8h-64c-4.421876 0-8 3.582031-8 8v64h-32v-104h144zm0 0"/><path d="m176.492188 0c-97.160157.109375-175.890626 78.84375-176 176 0 105.792969 163.039062 293.335938 169.980468 301.273438 1.519532 1.71875 3.707032 2.707031 6 2.707031 2.296875 0 4.484375-.988281 6-2.707031 6.976563-7.9375 170.019532-195.480469 170.019532-301.273438-.113282-97.15625-78.84375-175.890625-176-176zm0 459.679688c-29.824219-35.367188-160-194.878907-160-283.679688 0-88.367188 71.632812-160 160-160 88.363281 0 160 71.632812 160 160 0 88.800781-130.179688 248.3125-160 283.679688zm0 0"/></g></svg>