<?xml version="1.0" standalone="no"?>
<!DOCTYPE svg PUBLIC "-//W3C//DTD SVG 20010904//EN"
 "http://www.w3.org/TR/2001/REC-SVG-20010904/DTD/svg10.dtd">
<svg version="1.0" xmlns="http://www.w3.org/2000/svg"
 width="842.000000pt" height="842.000000pt" viewBox="0 0 842.000000 842.000000"
 preserveAspectRatio="xMidYMid meet">
<metadata>
Created by potrace 1.11, written by Peter Selinger 2001-2013
</metadata>
<g transform="translate(0.000000,842.000000) scale(0.100000,-0.100000)"
fill="#000000" stroke="none">
<path d="M3029 6306 c-2 -2 -20 -6 -39 -9 -67 -9 -155 -71 -206 -147 -119
-174 -52 -411 143 -506 51 -25 69 -29 148 -29 78 0 97 4 145 28 101 50 188
158 195 242 0 6 3 15 6 20 22 44 -22 217 -67 262 -7 7 -21 23 -31 35 -30 37
-77 66 -139 87 -52 17 -144 27 -155 17z"/>
<path d="M5274 6300 c-52 -12 -124 -51 -160 -87 -179 -179 -134 -461 91 -569
53 -25 71 -29 150 -29 79 0 96 3 145 29 98 50 163 128 190 229 18 65 8 170
-21 232 -33 71 -126 158 -191 180 -57 20 -154 27 -204 15z"/>
<path d="M2732 5471 c-9 -7 -10 -2576 0 -2586 4 -5 551 -9 680 -5 5 0 9 427
10 950 l3 949 90 -76 c50 -41 112 -94 139 -117 27 -22 55 -46 61 -53 10 -9 41
11 143 96 133 110 223 185 276 233 l31 27 -30 26 c-16 15 -52 45 -79 68 -27
23 -58 50 -70 60 -11 10 -41 36 -66 57 -25 21 -55 47 -66 57 -25 21 -113 96
-163 138 -20 17 -41 35 -47 41 -7 6 -46 39 -88 75 l-77 64 -369 1 c-204 0
-374 -2 -378 -5z"/>
<path d="M4908 5439 c-24 -20 -155 -132 -293 -249 -137 -116 -270 -229 -295
-250 -25 -21 -67 -57 -95 -80 -53 -45 -132 -112 -169 -145 -13 -11 -42 -36
-66 -55 -23 -19 -55 -46 -70 -60 -15 -14 -55 -47 -88 -74 l-59 -49 76 -66 c43
-36 101 -86 131 -111 164 -138 205 -174 208 -181 7 -17 26 -8 81 39 31 26 65
54 76 64 55 45 161 135 175 148 9 8 39 33 65 55 27 22 56 47 65 55 9 8 38 33
65 54 28 22 60 49 71 60 12 12 41 37 65 56 24 19 65 54 93 78 27 23 52 42 55
42 6 0 6 -363 1 -385 -1 -5 -1 -14 0 -20 3 -14 3 -288 0 -300 -1 -5 -1 -14 0
-20 3 -14 3 -288 0 -300 -1 -5 -1 -14 0 -20 3 -14 3 -288 0 -300 -1 -5 -1 -14
0 -20 1 -5 2 -126 2 -267 l1 -258 96 0 c53 0 208 -1 344 -1 137 -1 251 2 254
5 4 4 8 2432 4 2566 l-1 25 -374 1 -374 1 -44 -38z"/>
<path d="M3489 4618 c-6 -35 -4 -1727 2 -1733 5 -4 221 -7 560 -5 l126 0 0
589 c0 324 -2 593 -6 598 -3 4 -33 31 -66 58 -33 28 -71 60 -85 71 -14 12 -81
68 -150 124 -69 57 -132 110 -142 119 -9 9 -31 27 -49 41 -18 14 -37 30 -43
35 -6 6 -38 32 -71 60 -33 27 -63 53 -66 58 -4 5 -8 -2 -10 -15z"/>
<path d="M4910 4608 c-14 -13 -61 -52 -105 -88 -44 -35 -82 -67 -85 -70 -3 -3
-54 -46 -115 -95 -60 -49 -137 -112 -170 -140 -33 -27 -78 -63 -99 -80 -21
-16 -50 -41 -65 -54 l-26 -25 0 -588 c0 -518 2 -588 15 -588 29 -1 625 -1 650
0 l26 0 0 875 c0 481 -1 875 -1 875 0 0 -11 -10 -25 -22z"/>
<path d="M5106 2729 c-77 -22 -116 -73 -116 -151 0 -162 233 -198 294 -46 43
107 -67 230 -178 197z m100 -80 c12 -11 24 -32 27 -47 17 -89 -93 -149 -157
-86 -14 15 -26 29 -27 33 -5 40 -3 56 13 81 31 52 99 61 144 19z"/>
<path d="M2718 2723 c-2 -4 -4 -69 -4 -143 l1 -135 30 -3 31 -3 -2 86 c0 47 2
85 5 85 3 0 22 -30 42 -66 l36 -66 42 66 c23 36 43 66 46 66 2 0 4 -36 4 -80
0 -92 3 -102 34 -91 21 8 22 13 23 150 l0 141 -32 0 c-30 0 -36 -6 -69 -65
-20 -36 -40 -65 -44 -65 -4 0 -23 28 -42 63 -30 53 -39 62 -66 65 -17 2 -33
-1 -35 -5z"/>
<path d="M3151 2693 c-10 -21 -20 -42 -22 -48 -2 -5 -24 -53 -50 -105 -40 -81
-44 -96 -30 -101 22 -9 50 7 62 35 9 20 18 23 78 23 64 1 68 -1 83 -28 13 -22
24 -29 48 -29 17 0 29 3 27 8 -7 13 -73 155 -103 220 -35 77 -62 84 -93 25z
m64 -99 c21 -50 20 -50 -25 -50 -22 0 -40 4 -40 8 0 15 34 78 42 78 4 0 15
-16 23 -36z"/>
<path d="M3396 2704 c-51 -52 -29 -107 60 -149 39 -19 54 -31 52 -43 -4 -22
-53 -28 -85 -11 -20 11 -26 10 -43 -8 -21 -23 -17 -29 30 -50 66 -30 152 6
158 66 4 42 -17 66 -85 98 -54 26 -64 42 -40 62 13 10 47 8 68 -4 10 -7 49 21
49 35 0 11 -65 30 -102 30 -25 0 -43 -8 -62 -26z"/>
<path d="M3608 2718 c-3 -11 -2 -217 1 -265 1 -7 14 -13 31 -13 27 0 29 2 28
38 -1 86 -2 86 40 40 67 -77 69 -78 143 -78 65 0 69 1 75 25 7 30 2 28 86 30
65 2 67 1 79 -27 9 -23 17 -28 46 -28 19 0 32 3 30 8 -3 4 -28 57 -56 117 -73
158 -74 160 -101 163 -20 2 -28 -4 -39 -30 -25 -57 -113 -243 -117 -247 -2 -3
-33 27 -69 65 l-64 69 23 25 c12 14 41 45 64 70 l42 45 -33 3 c-28 3 -39 -4
-89 -58 -61 -66 -61 -66 -60 18 1 40 -1 42 -27 42 -16 0 -31 -6 -33 -12z m422
-119 c0 -10 5 -21 10 -24 25 -15 9 -32 -30 -31 -22 0 -40 3 -40 6 0 3 8 24 17
47 13 32 21 39 30 31 7 -6 13 -19 13 -29z"/>
<path d="M4198 2728 c0 -2 -2 -67 -3 -145 l-1 -143 28 0 c32 0 31 -3 28 115
-1 44 1 78 3 75 14 -14 117 -175 117 -183 0 -4 15 -7 33 -5 l32 3 0 143 0 142
-27 0 c-31 0 -30 3 -29 -102 0 -38 -4 -68 -9 -68 -6 0 -10 7 -10 15 0 8 -4 15
-10 15 -5 0 -10 5 -10 11 0 6 -11 25 -25 43 -14 18 -25 37 -25 43 0 18 -36 43
-63 43 -15 0 -28 -1 -29 -2z"/>
<path d="M4523 2719 c-12 -6 -27 -25 -34 -41 -20 -48 7 -90 76 -122 42 -19 56
-30 53 -43 -4 -22 -41 -28 -79 -13 -23 10 -31 9 -44 -3 -8 -9 -15 -20 -15 -25
0 -18 54 -37 103 -37 41 1 53 5 73 28 45 53 24 111 -49 138 -21 7 -45 22 -55
32 -16 18 -16 20 3 33 11 8 24 13 30 11 37 -14 52 -14 70 -1 18 13 18 15 3 30
-20 20 -105 28 -135 13z"/>
<path d="M4725 2720 c3 -5 3 -10 -2 -10 -6 0 -8 -139 -4 -256 1 -11 9 -14 29
-12 25 3 27 7 29 48 1 25 2 52 2 61 1 12 13 16 56 17 l55 1 0 -65 c0 -64 0
-64 29 -64 l29 0 -1 145 -1 145 -27 0 c-27 0 -28 -2 -31 -57 l-3 -58 -52 -2
-53 -2 -1 52 c-1 29 -1 55 0 60 0 4 -13 7 -30 7 -17 0 -28 -4 -24 -10z"/>
<path d="M5313 2718 c3 -7 25 -73 48 -145 42 -127 45 -133 71 -133 24 0 28 6
43 58 9 31 18 65 21 75 10 32 21 17 41 -55 18 -69 21 -73 48 -73 28 0 30 3 71
130 24 72 43 136 44 143 0 9 -10 12 -27 10 -25 -3 -31 -11 -54 -81 -31 -92
-36 -98 -45 -61 -3 16 -14 54 -24 84 -14 45 -21 56 -41 58 -22 3 -26 -3 -42
-60 -21 -74 -25 -90 -26 -101 -2 -23 -19 10 -41 82 -24 81 -24 81 -58 81 -23
0 -32 -4 -29 -12z"/>
</g>
</svg>
